Coordinates
version=1
nRows=4
nColumns=107
inDegrees=yes

Units are S.I. units (second, meters, Newtons, ...)
If the header above contains a line with 'inDegrees', this indicates whether rotational values are in degrees (yes) or radians (no).

endheader
time	sternoclavicular_r2	sternoclavicular_r3	unrotscap_r3	unrotscap_r2	acromioclavicular_r2	acromioclavicular_r3	acromioclavicular_r1	unrothum_r1	unrothum_r3	unrothum_r2	elv_angle	shoulder_elv	shoulder1_r2	shoulder_rot	elbow_flexion	pro_sup	deviation	flexion	proximal_distal_r1	proximal_distal_r3	cmc_flexion	cmc_abduction	mp_flexion	ip_flexion	mcp2_flexion	mcp2_abduction	pm2_flexion	md2_flexion	mcp3_flexion	mcp3_abduction	pm3_flexion	md3_flexion	mcp4_flexion	mcp4_abduction	pm4_flexion	md4_flexion	mcp5_flexion	mcp5_abduction	pm5_flexion	md5_flexion	bicpt_tx	bicpt_ty	bicpt_tz	bicpt2_tx	bicpt2_ty	bicpt2_tz	ptpt_tx	ptpt_ty	ptpt_tz	FCUpt_tx	FCUpt_ty	FCUpt_tz	EDCpt_tx	EDCpt_ty	EDCpt_tz	APLpt_tx	APLpt_ty	APLpt_tz	FPLpt_tx	FPLpt_ty	FPLpt_tz	FPLpt2_tx	FPLpt2_ty	FPLpt2_tz	PEC1pt2_tx	PEC1pt2_ty	PEC1pt2_tz	PEC1pt3_tx	PEC1pt3_ty	PEC1pt3_tz	PEC2pt2_tx	PEC2pt2_ty	PEC2pt2_tz	PEC2pt3_tx	PEC2pt3_ty	PEC2pt3_tz	PEC3pt2_tx	PEC3pt2_ty	PEC3pt2_tz	PEC3pt3_tx	PEC3pt3_ty	PEC3pt3_tz	DELT2pt2a_tx	DELT2pt2a_ty	DELT2pt2a_tz	DELT2pt2_tx	DELT2pt2_ty	DELT2pt2_tz	LAT1pt2_tx	LAT1pt2_ty	LAT1pt2_tz	LAT1pt3_tx	LAT1pt3_ty	LAT1pt3_tz	LAT2pt2_tx	LAT2pt2_ty	LAT2pt2_tz	LAT2pt3_tx	LAT2pt3_ty	LAT2pt3_tz	LAT3pt2_tx	LAT3pt2_ty	LAT3pt2_tz	LAT3pt3_tx	LAT3pt3_ty	LAT3pt3_tz
      0.00000000	     -0.31974920	      0.13543067	     -0.13543067	      0.31974920	     -0.06474271	      0.52322780	      0.23518729	     -0.23518729	     -0.52322780	      0.06474271	     99.80896684	     75.70346514	     -1.74199509	    -25.57637868	     28.08782582	     14.77076158	      0.03668479	     -0.94696330	      0.04868520	     -0.47348165	     -0.26687966	      9.94196295	    -35.18984752	    -48.39730228	     31.14106386	      6.41945063	     18.81682372	    -21.51507003	     92.21871880	      4.44840073	     80.26782637	     27.04816662	     76.99870992	     -9.09414845	     86.07070483	     21.58770916	     18.04884296	      0.66891232	     -6.67193814	      4.97285037	      0.00082906	     -0.03081929	     -0.00481854	      0.01579918	     -0.01783020	     -0.00971707	      0.00645861	     -0.06560571	     -0.00123986	      0.00533842	     -0.18392952	      0.00003235	     -0.00177249	      0.00045217	      0.00015505	      0.00021790	      0.00008716	      0.00043580	      0.00027891	      0.00083674	      0.00047066	     -0.00000846	      0.00000671	      0.00000805	      0.00248139	      0.00870591	      0.00605628	     -0.00811710	      0.01959880	     -0.01858942	      0.00248139	      0.00870591	      0.00605628	      0.00054675	      0.01816885	     -0.00954706	      0.00393035	      0.00484124	      0.01592449	      0.00000000	      0.00766380	      0.00000000	     -0.00710772	     -0.03284692	     -0.00631850	      0.01678620	     -0.00060907	     -0.00546903	     -0.00088321	      0.01480425	     -0.00605628	      0.00243934	      0.02136522	     -0.01766416	     -0.00593011	      0.01282754	     -0.00542542	     -0.01236491	      0.02708504	     -0.03032347	     -0.02321575	      0.01434161	     -0.00727595	     -0.01539305	      0.03129079	     -0.03789382
      0.03333333	     -0.31960941	      0.13537146	     -0.13537146	      0.31960941	     -0.06471440	      0.52299905	      0.23508447	     -0.23508447	     -0.52299905	      0.06471440	     99.81314841	     75.67036900	     -1.74206808	    -25.56509819	     28.08763095	     14.77494248	      0.03663232	     -0.94692838	      0.04861684	     -0.47346419	     -0.26416493	      9.94258542	    -35.18954918	    -48.39752956	     31.14542598	      6.42194221	     18.81731717	    -21.51471804	     92.21612542	      4.44770998	     80.26856001	     27.04859929	     76.99773183	     -9.09631400	     86.07044921	     21.58777645	     18.04913441	      0.66880524	     -6.67209930	      4.97279475	      0.00082905	     -0.03081927	     -0.00481854	      0.01579943	     -0.01783014	     -0.00971676	      0.00645830	     -0.06560591	     -0.00124020	      0.00533880	     -0.18392947	      0.00003224	     -0.00177299	      0.00045231	      0.00015508	      0.00021792	      0.00008717	      0.00043584	      0.00027894	      0.00083681	      0.00047071	     -0.00000838	      0.00000664	      0.00000797	      0.00248031	      0.00870210	      0.00605363	     -0.00811355	      0.01959023	     -0.01858130	      0.00248031	      0.00870210	      0.00605363	      0.00054651	      0.01816090	     -0.00954288	      0.00392910	      0.00483913	      0.01592139	      0.00000000	      0.00765705	      0.00000000	     -0.00710461	     -0.03283256	     -0.00631290	      0.01678049	     -0.00060870	     -0.00546423	     -0.00088282	      0.01479777	     -0.00605363	      0.00243827	      0.02135588	     -0.01765643	     -0.00592752	      0.01282193	     -0.00542305	     -0.01235950	      0.02707320	     -0.03031021	     -0.02320560	      0.01433534	     -0.00727277	     -0.01538632	      0.03127711	     -0.03787726
      0.06666667	     -0.31878601	      0.13502271	     -0.13502271	      0.31878601	     -0.06454768	      0.52165166	      0.23447883	     -0.23447883	     -0.52165166	      0.06454768	     99.90415023	     75.47542109	     -1.74365636	    -26.69411063	     28.23377517	     16.58287017	      0.02241124	     -0.94510805	      0.03000425	     -0.47255402	      1.32780416	     10.05819699	    -36.22028536	    -49.92295317	     30.66545841	      6.95784557	     19.94464983	    -21.96136506	     90.40015549	      4.30680742	     81.78118520	     31.69602110	     76.45038896	    -10.39079533	     85.89382942	     22.78503951	     18.40338227	      0.33257282	     -8.39179091	      4.98493704	      0.00083389	     -0.03083602	     -0.00482124	      0.01590341	     -0.01786984	     -0.00958542	      0.00632471	     -0.06569229	     -0.00138584	      0.00550725	     -0.18390434	     -0.00001371	     -0.00198994	      0.00051228	      0.00016593	      0.00021894	      0.00008758	      0.00043788	      0.00028024	      0.00084073	      0.00047291	      0.00002899	     -0.00003222	     -0.00003866	      0.00247392	      0.00867968	      0.00603804	     -0.00809265	      0.01953976	     -0.01853342	      0.00247392	      0.00867968	      0.00603804	      0.00054510	      0.01811412	     -0.00951830	      0.00392167	      0.00482666	      0.01590307	      0.00000000	      0.00761738	      0.00000000	     -0.00708631	     -0.03274797	     -0.00627996	      0.01733949	     -0.00064589	     -0.00595769	     -0.00088055	      0.01475965	     -0.00603804	      0.00243199	      0.02130086	     -0.01761095	     -0.00591225	      0.01278890	     -0.00540908	     -0.01232766	      0.02700345	     -0.03023212	     -0.02314582	      0.01429841	     -0.00725403	     -0.01534668	      0.03119653	     -0.03777967
      0.10000000	     -0.31940739	      0.13528589	     -0.13528589	      0.31940739	     -0.06467350	      0.52266847	      0.23493588	     -0.23493588	     -0.52266847	      0.06467350	     99.64009627	     75.62253797	     -1.73904775	    -25.79994457	     28.36527536	     16.20820709	      0.02908099	     -0.92824669	      0.03877544	     -0.46412335	      1.71563369	      9.94364489	    -36.38878172	    -49.84296322	     30.24618338	      7.26088599	     20.46820252	    -22.19132529	     89.54331451	      4.30439544	     82.46910695	     33.34624182	     76.15503039	    -10.67844860	     85.53766600	     23.67485460	     18.21670284	      0.43824237	     -8.50540036	      4.98034375	      0.00083824	     -0.03085109	     -0.00482367	      0.01588247	     -0.01790557	     -0.00961301	      0.00635240	     -0.06567439	     -0.00135566	      0.00547226	     -0.18390963	     -0.00000438	     -0.00194498	      0.00049977	      0.00016383	      0.00022815	      0.00009126	      0.00045629	      0.00029203	      0.00087608	      0.00049280	      0.00003395	     -0.00004126	     -0.00004951	      0.00247874	      0.00869660	      0.00604981	     -0.00810842	      0.01957785	     -0.01856955	      0.00247874	      0.00869660	      0.00604981	      0.00054616	      0.01814942	     -0.00953685	      0.00392728	      0.00483607	      0.01591690	      0.00000000	      0.00764731	      0.00000000	     -0.00710012	     -0.03281181	     -0.00630481	      0.01689816	     -0.00061640	     -0.00556546	     -0.00088226	      0.01478842	     -0.00604981	      0.00243673	      0.02134238	     -0.01764527	     -0.00592377	      0.01281383	     -0.00541962	     -0.01235169	      0.02705609	     -0.03029105	     -0.02319093	      0.01432628	     -0.00726817	     -0.01537660	      0.03125734	     -0.03785331
